<svg viewBox="0 0 222 40" fill="none" xmlns="http://www.w3.org/2000/svg">
              <path d="M196.582 22.9795C196.582 26.6118 195.814 29.7198 194.279 32.3037C192.744 34.8502 190.648 36.7791 187.989 38.0898C185.368 39.3631 182.448 40 179.228 40C176.008 40 173.124 39.3631 170.578 38.0898C168.07 36.7791 166.085 34.8502 164.625 32.3037C163.202 29.7573 162.491 26.6492 162.491 22.9795V22.5312L173.442 21.5986V22.9795C173.442 25.1139 173.93 26.762 174.903 27.9229C175.914 29.0835 177.431 29.664 179.452 29.6641C181.474 29.6641 182.991 29.0838 184.002 27.9229C185.05 26.7245 185.574 25.0765 185.574 22.9795V20.5645L196.582 19.627V22.9795ZM20.4434 10.9014L26.8457 0.00390625H39.3701L26.6777 19.9453L31.6494 27.168L19.6064 28.4375L19.5811 28.4795L19.5449 28.4277L12.9736 39.6064H0.449219L13.3105 19.3281L0 0.00390625H12.9736L20.4434 10.9014ZM40.2129 39.6064H27.2393L23.7236 34.499L35.9688 33.4414L40.2129 39.6064ZM52.8643 39.6064H41.2949L43.7871 32.7656L55.458 31.7578L52.8643 39.6064ZM82.7988 39.6064H71.1738L68.2148 30.6553L79.2041 29.7061L82.7988 39.6064ZM95.71 39.6064H84.7021V29.2314L95.71 28.2803V39.6064ZM95.71 20.374L109.133 18.9795V0.00390625H120.142V39.6064H109.133V27.1367L95.7178 28.2773V20.416L84.7021 21.5762V0.00390625H95.71V20.374ZM133.624 39.6035H122.055L127.171 25.5625L138.591 24.5762L133.624 39.6035ZM163.56 39.6035H151.934L146.733 23.873L146.777 23.8701L143.93 15.3359L143.912 15.3369L142.779 11.9092L141.563 15.585L130.378 16.7637L136.488 0H149.182L163.56 39.6035ZM76.5645 22.4336L65.8691 23.5615L62.0186 11.9121L57.8896 24.4023L46.3936 25.6143L55.7285 0.00390625H68.4219L76.5645 22.4336ZM173.442 12.249L162.491 13.3936V0.00390625H173.442V12.249ZM196.582 9.8291L185.574 10.9805V0.00390625H196.582V9.8291Z" fill="black" />
              <path d="M220.158 11.4972C220.966 11.8662 221.06 12.946 220.327 13.441L208.951 21.1231C208.218 21.618 207.208 21.1569 207.133 20.293L205.97 6.88506C205.895 6.02116 206.811 5.40245 207.619 5.77138L220.158 11.4972Z" fill="black" />
            </svg>